<svg width="1178" height="64" viewBox="0 0 1178 64" fill="none" xmlns="http://www.w3.org/2000/svg">
<g filter="url(#filter0_d_5_228)">
<path d="M1014 27.9981C1014 12.5341 1026.54 -0.00189209 1042 -0.00189209H1059.26C1064.9 -0.00189209 1068.77 5.67515 1066.71 10.9233L1050.97 50.9881C1049.78 54.0105 1046.86 55.9981 1043.62 55.9981H1042C1026.54 55.9981 1014 43.4621 1014 27.9981Z" fill="white" fill-opacity="0.07"/>
<rect x="4" y="-0.00189209" width="160" height="56" rx="28" fill="#894189"/>
<path d="M4 27.9981C4 12.5341 16.536 -0.00189209 32 -0.00189209H49.2619C54.9006 -0.00189209 58.7697 5.67515 56.708 10.9233L40.9682 50.9881C39.7808 54.0105 36.8645 55.9981 33.6172 55.9981H32C16.536 55.9981 4 43.4621 4 27.9981Z" fill="white" fill-opacity="0.07"/>
<path d="M40.6175 34.9981V20.4527H42.8121V33.1089H49.4031V34.9981H40.6175ZM51.7362 34.9981V24.089H53.8597V34.9981H51.7362ZM52.8086 22.4058C52.4393 22.4058 52.122 22.2827 51.8569 22.0365C51.5965 21.7855 51.4663 21.4872 51.4663 21.1416C51.4663 20.7912 51.5965 20.4929 51.8569 20.2467C52.122 19.9957 52.4393 19.8703 52.8086 19.8703C53.1779 19.8703 53.4928 19.9957 53.7532 20.2467C54.0183 20.4929 54.1509 20.7912 54.1509 21.1416C54.1509 21.4872 54.0183 21.7855 53.7532 22.0365C53.4928 22.2827 53.1779 22.4058 52.8086 22.4058ZM61.9084 24.089V25.7936H55.7436V24.089H61.9084ZM57.4339 34.9981V22.8248C57.4339 22.143 57.5831 21.5772 57.8814 21.1274C58.1797 20.6728 58.575 20.3343 59.0675 20.1117C59.5599 19.8845 60.0949 19.7708 60.6726 19.7708C61.0987 19.7708 61.4633 19.8063 61.7663 19.8774C62.0694 19.9437 62.2943 20.0052 62.4411 20.062L61.9439 21.7808C61.8445 21.7524 61.7166 21.7192 61.5604 21.6813C61.4041 21.6387 61.2147 21.6174 60.9922 21.6174C60.4761 21.6174 60.1068 21.7453 59.8842 22.0009C59.6664 22.2566 59.5575 22.6259 59.5575 23.1089V34.9981H57.4339ZM68.3714 35.2183C67.2966 35.2183 66.371 34.9886 65.5945 34.5294C64.8227 34.0653 64.2261 33.4143 63.8047 32.5762C63.388 31.7334 63.1797 30.7462 63.1797 29.6146C63.1797 28.4972 63.388 27.5123 63.8047 26.66C64.2261 25.8078 64.8132 25.1425 65.5661 24.6643C66.3236 24.1861 67.209 23.947 68.2223 23.947C68.8378 23.947 69.4344 24.0488 70.0121 24.2524C70.5897 24.456 71.1082 24.7756 71.5675 25.2112C72.0268 25.6468 72.389 26.2126 72.6541 26.9086C72.9193 27.5999 73.0518 28.4403 73.0518 29.4299V30.1828H64.38V28.5919H70.9709C70.9709 28.0331 70.8572 27.5384 70.63 27.1075C70.4027 26.6719 70.0831 26.3286 69.6712 26.0777C69.264 25.8267 68.7857 25.7012 68.2365 25.7012C67.6399 25.7012 67.1191 25.848 66.674 26.1416C66.2337 26.4304 65.8928 26.8092 65.6513 27.2779C65.4145 27.742 65.2962 28.2462 65.2962 28.7907V30.0336C65.2962 30.7628 65.424 31.3831 65.6797 31.8944C65.9401 32.4058 66.3023 32.7964 66.7663 33.0663C67.2304 33.3314 67.7725 33.464 68.3928 33.464C68.7952 33.464 69.1622 33.4072 69.4936 33.2936C69.825 33.1752 70.1115 33 70.353 32.768C70.5945 32.536 70.7791 32.2495 70.907 31.9086L72.9169 32.2708C72.7559 32.8627 72.4671 33.3812 72.0504 33.8262C71.6385 34.2666 71.12 34.6099 70.495 34.8561C69.8748 35.0975 69.1669 35.2183 68.3714 35.2183Z" fill="white"/>
<path d="M92.5858 37.8932L92.5777 37.8897L92.552 37.8757C92.4018 37.7931 92.2529 37.7083 92.1052 37.6214C90.3293 36.5661 88.6697 35.3265 87.1538 33.923C84.4693 31.4182 81.625 27.7012 81.625 23.1232C81.625 19.7072 84.4997 16.9982 87.9693 16.9982C88.9339 16.9935 89.8871 17.2063 90.758 17.6207C91.629 18.0352 92.3953 18.6407 93 19.3922C93.6048 18.6405 94.3713 18.035 95.2425 17.6205C96.1137 17.206 97.0671 16.9933 98.0318 16.9982C101.5 16.9982 104.375 19.7072 104.375 23.1232C104.375 27.7024 101.531 31.4194 98.8462 33.9219C97.3304 35.3253 95.6707 36.565 93.8948 37.6202C93.7471 37.7075 93.5982 37.7927 93.448 37.8757L93.4223 37.8897L93.4142 37.8944L93.4107 37.8955C93.2842 37.9625 93.1432 37.9976 93 37.9976C92.8568 37.9976 92.7158 37.9625 92.5893 37.8955L92.5858 37.8932Z" fill="white"/>
<path d="M102.893 35.9649L106.083 29.7316H103.883V25.6982L100.583 31.9316H102.893V35.9649ZM103.333 38.1649C102.319 38.1649 101.366 37.9724 100.473 37.5874C99.5811 37.2024 98.805 36.6799 98.145 36.0199C97.485 35.3599 96.9625 34.5838 96.5775 33.6916C96.1925 32.7993 96 31.846 96 30.8316C96 29.8171 96.1925 28.8638 96.5775 27.9716C96.9625 27.0793 97.485 26.3032 98.145 25.6432C98.805 24.9832 99.5811 24.4607 100.473 24.0757C101.366 23.6907 102.319 23.4982 103.333 23.4982C104.348 23.4982 105.301 23.6907 106.193 24.0757C107.086 24.4607 107.862 24.9832 108.522 25.6432C109.182 26.3032 109.704 27.0793 110.089 27.9716C110.474 28.8638 110.667 29.8171 110.667 30.8316C110.667 31.846 110.474 32.7993 110.089 33.6916C109.704 34.5838 109.182 35.3599 108.522 36.0199C107.862 36.6799 107.086 37.2024 106.193 37.5874C105.301 37.9724 104.348 38.1649 103.333 38.1649Z" fill="#894189"/>
<path d="M103.267 35.4982L106.167 29.8315H104.167V26.1649L101.167 31.8315H103.267V35.4982ZM103.667 37.4982C102.744 37.4982 101.878 37.3232 101.067 36.9732C100.256 36.6232 99.55 36.1482 98.95 35.5482C98.35 34.9482 97.875 34.2426 97.525 33.4315C97.175 32.6204 97 31.7537 97 30.8315C97 29.9093 97.175 29.0426 97.525 28.2315C97.875 27.4204 98.35 26.7149 98.95 26.1149C99.55 25.5149 100.256 25.0399 101.067 24.6899C101.878 24.3399 102.744 24.1649 103.667 24.1649C104.589 24.1649 105.456 24.3399 106.267 24.6899C107.078 25.0399 107.783 25.5149 108.383 26.1149C108.983 26.7149 109.458 27.4204 109.808 28.2315C110.158 29.0426 110.333 29.9093 110.333 30.8315C110.333 31.7537 110.158 32.6204 109.808 33.4315C109.458 34.2426 108.983 34.9482 108.383 35.5482C107.783 36.1482 107.078 36.6232 106.267 36.9732C105.456 37.3232 104.589 37.4982 103.667 37.4982Z" fill="white"/>
<path d="M125.858 20.4527V34.9981H123.656V22.6544H123.571L120.091 24.9271V22.8248L123.72 20.4527H125.858Z" fill="white"/>
<rect x="1004" y="-0.00189209" width="170" height="56" rx="28" fill="#360490"/>
<path d="M1046.88 24.2737C1046.81 23.6013 1046.5 23.0805 1045.95 22.7112C1045.4 22.3371 1044.71 22.1501 1043.87 22.1501C1043.28 22.1501 1042.76 22.2448 1042.33 22.4342C1041.89 22.6188 1041.55 22.8745 1041.31 23.2012C1041.07 23.5232 1040.95 23.8902 1040.95 24.3021C1040.95 24.6477 1041.03 24.946 1041.2 25.197C1041.36 25.4479 1041.58 25.6586 1041.84 25.8291C1042.11 25.9948 1042.4 26.1345 1042.71 26.2481C1043.02 26.357 1043.31 26.447 1043.6 26.518L1045.02 26.8873C1045.48 27.0009 1045.96 27.1548 1046.44 27.349C1046.93 27.5431 1047.38 27.7988 1047.8 28.116C1048.22 28.4332 1048.55 28.8262 1048.81 29.295C1049.07 29.7637 1049.2 30.3248 1049.2 30.9782C1049.2 31.8021 1048.99 32.5336 1048.56 33.1728C1048.14 33.812 1047.53 34.3163 1046.72 34.6856C1045.92 35.0549 1044.95 35.2396 1043.82 35.2396C1042.73 35.2396 1041.79 35.0668 1040.99 34.7211C1040.19 34.3755 1039.57 33.8854 1039.12 33.2509C1038.67 32.6117 1038.42 31.8542 1038.38 30.9782H1040.58C1040.62 31.5038 1040.79 31.9418 1041.09 32.2921C1041.39 32.6378 1041.78 32.8958 1042.25 33.0663C1042.72 33.232 1043.24 33.3149 1043.8 33.3149C1044.42 33.3149 1044.97 33.2178 1045.46 33.0237C1045.94 32.8248 1046.33 32.5502 1046.61 32.1998C1046.89 31.8447 1047.03 31.4304 1047.03 30.9569C1047.03 30.526 1046.9 30.1733 1046.66 29.8987C1046.42 29.6241 1046.09 29.3968 1045.67 29.2169C1045.26 29.0369 1044.79 28.8783 1044.27 28.741L1042.55 28.2723C1041.39 27.955 1040.46 27.4886 1039.78 26.8731C1039.11 26.2576 1038.77 25.4432 1038.77 24.4299C1038.77 23.5919 1038.99 22.8603 1039.45 22.2353C1039.9 21.6103 1040.52 21.125 1041.3 20.7794C1042.07 20.429 1042.95 20.2538 1043.92 20.2538C1044.91 20.2538 1045.78 20.4266 1046.53 20.7723C1047.29 21.1179 1047.88 21.5938 1048.32 22.1998C1048.76 22.8011 1048.98 23.4924 1049 24.2737H1046.88ZM1056.25 35.2183C1055.19 35.2183 1054.28 34.9792 1053.52 34.5009C1052.76 34.018 1052.18 33.3527 1051.77 32.5052C1051.37 31.6577 1051.16 30.687 1051.16 29.5933C1051.16 28.4853 1051.37 27.5076 1051.79 26.66C1052.2 25.8078 1052.79 25.1425 1053.55 24.6643C1054.31 24.1861 1055.2 23.947 1056.23 23.947C1057.05 23.947 1057.79 24.1009 1058.44 24.4086C1059.09 24.7116 1059.61 25.1378 1060.01 25.687C1060.41 26.2363 1060.65 26.8778 1060.73 27.6117H1058.66C1058.55 27.1004 1058.29 26.66 1057.88 26.2907C1057.48 25.9214 1056.94 25.7367 1056.26 25.7367C1055.67 25.7367 1055.15 25.893 1054.71 26.2055C1054.27 26.5133 1053.92 26.9536 1053.68 27.5265C1053.43 28.0947 1053.31 28.767 1053.31 29.5436C1053.31 30.339 1053.43 31.0256 1053.67 31.6032C1053.91 32.1809 1054.25 32.6283 1054.69 32.9456C1055.14 33.2628 1055.66 33.4214 1056.26 33.4214C1056.66 33.4214 1057.03 33.348 1057.36 33.2012C1057.69 33.0497 1057.96 32.8343 1058.19 32.5549C1058.41 32.2756 1058.57 31.9394 1058.66 31.5464H1060.73C1060.65 32.2519 1060.42 32.8816 1060.04 33.4356C1059.66 33.9896 1059.14 34.4252 1058.5 34.7424C1057.86 35.0597 1057.11 35.2183 1056.25 35.2183ZM1067.59 35.2183C1066.57 35.2183 1065.68 34.9839 1064.92 34.5152C1064.16 34.0464 1063.56 33.3906 1063.14 32.5478C1062.72 31.705 1062.51 30.7202 1062.51 29.5933C1062.51 28.4616 1062.72 27.4721 1063.14 26.6245C1063.56 25.777 1064.16 25.1188 1064.92 24.6501C1065.68 24.1813 1066.57 23.947 1067.59 23.947C1068.62 23.947 1069.51 24.1813 1070.27 24.6501C1071.03 25.1188 1071.63 25.777 1072.05 26.6245C1072.47 27.4721 1072.68 28.4616 1072.68 29.5933C1072.68 30.7202 1072.47 31.705 1072.05 32.5478C1071.63 33.3906 1071.03 34.0464 1070.27 34.5152C1069.51 34.9839 1068.62 35.2183 1067.59 35.2183ZM1067.6 33.4356C1068.26 33.4356 1068.81 33.2604 1069.25 32.91C1069.69 32.5597 1070.01 32.0933 1070.22 31.5109C1070.43 30.9285 1070.54 30.2869 1070.54 29.5862C1070.54 28.8902 1070.43 28.2509 1070.22 27.6686C1070.01 27.0814 1069.69 26.6103 1069.25 26.2552C1068.81 25.9001 1068.26 25.7225 1067.6 25.7225C1066.93 25.7225 1066.38 25.9001 1065.94 26.2552C1065.5 26.6103 1065.18 27.0814 1064.97 27.6686C1064.76 28.2509 1064.65 28.8902 1064.65 29.5862C1064.65 30.2869 1064.76 30.9285 1064.97 31.5109C1065.18 32.0933 1065.5 32.5597 1065.94 32.91C1066.38 33.2604 1066.93 33.4356 1067.6 33.4356ZM1075.05 34.9981V24.089H1077.1V25.822H1077.22C1077.42 25.2348 1077.77 24.7732 1078.27 24.437C1078.77 24.0961 1079.35 23.9257 1079.99 23.9257C1080.12 23.9257 1080.28 23.9304 1080.46 23.9399C1080.64 23.9493 1080.78 23.9612 1080.89 23.9754V26.0066C1080.8 25.983 1080.65 25.9569 1080.43 25.9285C1080.22 25.8954 1080 25.8788 1079.78 25.8788C1079.28 25.8788 1078.83 25.9853 1078.44 26.1984C1078.05 26.4067 1077.74 26.6979 1077.52 27.072C1077.29 27.4413 1077.17 27.8627 1077.17 28.3362V34.9981H1075.05ZM1087.04 35.2183C1085.96 35.2183 1085.04 34.9886 1084.26 34.5294C1083.49 34.0653 1082.89 33.4143 1082.47 32.5762C1082.05 31.7334 1081.85 30.7462 1081.85 29.6146C1081.85 28.4972 1082.05 27.5123 1082.47 26.66C1082.89 25.8078 1083.48 25.1425 1084.23 24.6643C1084.99 24.1861 1085.88 23.947 1086.89 23.947C1087.5 23.947 1088.1 24.0488 1088.68 24.2524C1089.26 24.456 1089.77 24.7756 1090.23 25.2112C1090.69 25.6468 1091.05 26.2126 1091.32 26.9086C1091.59 27.5999 1091.72 28.4403 1091.72 29.4299V30.1828H1083.05V28.5919H1089.64C1089.64 28.0331 1089.52 27.5384 1089.3 27.1075C1089.07 26.6719 1088.75 26.3286 1088.34 26.0777C1087.93 25.8267 1087.45 25.7012 1086.9 25.7012C1086.31 25.7012 1085.79 25.848 1085.34 26.1416C1084.9 26.4304 1084.56 26.8092 1084.32 27.2779C1084.08 27.742 1083.96 28.2462 1083.96 28.7907V30.0336C1083.96 30.7628 1084.09 31.3831 1084.35 31.8944C1084.61 32.4058 1084.97 32.7964 1085.43 33.0663C1085.9 33.3314 1086.44 33.464 1087.06 33.464C1087.46 33.464 1087.83 33.4072 1088.16 33.2936C1088.49 33.1752 1088.78 33 1089.02 32.768C1089.26 32.536 1089.45 32.2495 1089.57 31.9086L1091.58 32.2708C1091.42 32.8627 1091.13 33.3812 1090.72 33.8262C1090.3 34.2666 1089.79 34.6099 1089.16 34.8561C1088.54 35.0975 1087.83 35.2183 1087.04 35.2183Z" fill="white"/>
<path d="M1110.63 34.9926H1112.48V33.6695C1113.37 33.5107 1114.13 33.1667 1114.76 32.6374C1115.4 32.1082 1115.71 31.3231 1115.71 30.2823C1115.71 29.5413 1115.5 28.8621 1115.08 28.2447C1114.65 27.6272 1113.81 27.0891 1112.54 26.6305C1111.48 26.2776 1110.75 25.9689 1110.34 25.7043C1109.94 25.4396 1109.73 25.078 1109.73 24.6193C1109.73 24.1606 1109.9 23.799 1110.22 23.5343C1110.55 23.2697 1111.02 23.1374 1111.64 23.1374C1112.2 23.1374 1112.64 23.2741 1112.96 23.5476C1113.28 23.821 1113.51 24.1606 1113.65 24.5664L1115.34 23.8784C1115.15 23.2609 1114.79 22.7228 1114.27 22.2641C1113.75 21.8055 1113.17 21.5497 1112.54 21.4967V20.1736H1110.69V21.4967C1109.8 21.6908 1109.12 22.0789 1108.62 22.6611C1108.13 23.2433 1107.88 23.896 1107.88 24.6193C1107.88 25.4485 1108.12 26.1189 1108.61 26.6305C1109.09 27.1421 1109.86 27.5831 1110.9 27.9536C1112.01 28.3593 1112.78 28.721 1113.21 29.0385C1113.64 29.3561 1113.86 29.7707 1113.86 30.2823C1113.86 30.8645 1113.65 31.2923 1113.24 31.5657C1112.82 31.8392 1112.33 31.9759 1111.74 31.9759C1111.16 31.9759 1110.65 31.7951 1110.2 31.4334C1109.75 31.0717 1109.42 30.5293 1109.2 29.806L1107.46 30.494C1107.7 31.3408 1108.09 32.0244 1108.61 32.5448C1109.13 33.0653 1109.8 33.4225 1110.63 33.6166V34.9926ZM1111.59 38.1681C1110.12 38.1681 1108.74 37.8903 1107.46 37.3345C1106.17 36.7788 1105.05 36.0246 1104.1 35.072C1103.14 34.1193 1102.39 32.9991 1101.83 31.7113C1101.28 30.4234 1101 29.0474 1101 27.5831C1101 26.1188 1101.28 24.7428 1101.83 23.455C1102.39 22.1671 1103.14 21.0469 1104.1 20.0942C1105.05 19.1416 1106.17 18.3874 1107.46 17.8317C1108.74 17.276 1110.12 16.9981 1111.59 16.9981C1113.05 16.9981 1114.43 17.276 1115.71 17.8317C1117 18.3874 1118.12 19.1416 1119.07 20.0942C1120.03 21.0469 1120.78 22.1671 1121.34 23.455C1121.89 24.7428 1122.17 26.1188 1122.17 27.5831C1122.17 29.0474 1121.89 30.4234 1121.34 31.7113C1120.78 32.9991 1120.03 34.1193 1119.07 35.072C1118.12 36.0246 1117 36.7788 1115.71 37.3345C1114.43 37.8903 1113.05 38.1681 1111.59 38.1681Z" fill="white"/>
<path d="M1137.36 20.4527V34.9981H1135.16V22.6544H1135.07L1131.59 24.9271V22.8248L1135.22 20.4527H1137.36Z" fill="white"/>
</g>
<defs>
<filter id="filter0_d_5_228" x="0" y="-0.00189209" width="1178" height="64" filterUnits="userSpaceOnUse" color-interpolation-filters="sRGB">
<feFlood flood-opacity="0" result="BackgroundImageFix"/>
<feColorMatrix in="SourceAlpha" type="matrix" values="0 0 0 0 0 0 0 0 0 0 0 0 0 0 0 0 0 0 127 0" result="hardAlpha"/>
<feOffset dy="4"/>
<feGaussianBlur stdDeviation="2"/>
<feComposite in2="hardAlpha" operator="out"/>
<feColorMatrix type="matrix" values="0 0 0 0 0 0 0 0 0 0 0 0 0 0 0 0 0 0 0.25 0"/>
<feBlend mode="normal" in2="BackgroundImageFix" result="effect1_dropShadow_5_228"/>
<feBlend mode="normal" in="SourceGraphic" in2="effect1_dropShadow_5_228" result="shape"/>
</filter>
</defs>
</svg>
